<svg width="20" height="20" viewBox="0 0 20 20" fill="none" xmlns="http://www.w3.org/2000/svg">
<path d="M10 1.66675C8.90565 1.66675 7.82201 1.8823 6.81097 2.30109C5.79992 2.71987 4.88126 3.3337 4.10744 4.10752C2.54464 5.67033 1.66666 7.78994 1.66666 10.0001C1.66666 12.2102 2.54464 14.3298 4.10744 15.8926C4.88126 16.6665 5.79992 17.2803 6.81097 17.6991C7.82201 18.1179 8.90565 18.3334 10 18.3334C12.2101 18.3334 14.3298 17.4554 15.8926 15.8926C17.4554 14.3298 18.3333 12.2102 18.3333 10.0001C18.3333 8.90573 18.1178 7.8221 17.699 6.81105C17.2802 5.80001 16.6664 4.88135 15.8926 4.10752C15.1187 3.3337 14.2001 2.71987 13.189 2.30109C12.178 1.8823 11.0943 1.66675 10 1.66675ZM13.5 13.5001L9.16666 10.8334V5.83341H10.4167V10.1667L14.1667 12.4167L13.5 13.5001Z" fill="white"/>
</svg>
