<svg width="20" height="20" viewBox="0 0 20 20" fill="none" xmlns="http://www.w3.org/2000/svg">
<path d="M3.33334 16.6666C2.87501 16.6666 2.48278 16.5035 2.15667 16.1774C1.83056 15.8513 1.66723 15.4588 1.66667 14.9999V4.99992C1.66667 4.54159 1.83001 4.14936 2.15667 3.82325C2.48334 3.49714 2.87556 3.33381 3.33334 3.33325H16.6667C17.125 3.33325 17.5175 3.49659 17.8442 3.82325C18.1708 4.14992 18.3339 4.54214 18.3333 4.99992V14.9999C18.3333 15.4583 18.1703 15.8508 17.8442 16.1774C17.5181 16.5041 17.1256 16.6671 16.6667 16.6666H3.33334ZM10 10.6874C10.0694 10.6874 10.1425 10.6769 10.2192 10.6558C10.2958 10.6346 10.3686 10.6035 10.4375 10.5624L16.3333 6.87492C16.4444 6.80547 16.5278 6.71881 16.5833 6.61492C16.6389 6.51103 16.6667 6.39631 16.6667 6.27075C16.6667 5.99297 16.5486 5.78464 16.3125 5.64575C16.0764 5.50686 15.8333 5.51381 15.5833 5.66659L10 9.16659L4.41667 5.66659C4.16667 5.51381 3.92362 5.51047 3.68751 5.65659C3.45139 5.8027 3.33334 6.00742 3.33334 6.27075C3.33334 6.40964 3.36112 6.53131 3.41667 6.63575C3.47223 6.7402 3.55556 6.81992 3.66667 6.87492L9.56251 10.5624C9.63195 10.6041 9.705 10.6355 9.78167 10.6566C9.85834 10.6777 9.93112 10.688 10 10.6874Z" fill="white"/>
</svg>
