<svg width="17" height="20" viewBox="0 0 17 20" fill="none" xmlns="http://www.w3.org/2000/svg">
<path fill-rule="evenodd" clip-rule="evenodd" d="M5.04747 4.36792V3.4375C5.04747 2.52582 5.40964 1.65148 6.05429 1.00682C6.69895 0.362164 7.57329 0 8.48497 0C9.39666 0 10.271 0.362164 10.9157 1.00682C11.5603 1.65148 11.9225 2.52582 11.9225 3.4375V4.36792C13.1022 4.40367 13.8246 4.53017 14.3755 4.98758C15.1391 5.62192 15.3407 6.69442 15.7431 8.84033L16.4306 12.507C16.9962 15.5247 17.2786 17.0335 16.4545 18.0272C15.6295 19.0208 14.0941 19.0208 11.0241 19.0208H5.94581C2.87497 19.0208 1.34047 19.0208 0.515474 18.0272C-0.309526 17.0335 -0.0253597 15.5247 0.539307 12.507L1.22681 8.84033C1.63014 6.69533 1.83089 5.62192 2.59447 4.98758C3.14539 4.53017 3.86772 4.40367 5.04747 4.36792ZM6.42247 3.4375C6.42247 2.89049 6.63977 2.36589 7.02657 1.97909C7.41336 1.5923 7.93797 1.375 8.48497 1.375C9.03198 1.375 9.55659 1.5923 9.94338 1.97909C10.3302 2.36589 10.5475 2.89049 10.5475 3.4375V4.35417H6.42247V3.4375Z" fill="white"/>
</svg>
