<svg width="27" height="29" viewBox="0 0 27 29" fill="none" xmlns="http://www.w3.org/2000/svg">
<path fill-rule="evenodd" clip-rule="evenodd" d="M8.03081 6.65952V5.24096C8.03081 3.85097 8.60703 2.51791 9.63271 1.53504C10.6584 0.552171 12.0495 0 13.5001 0C14.9506 0 16.3417 0.552171 17.3674 1.53504C18.3931 2.51791 18.9693 3.85097 18.9693 5.24096V6.65952C20.8464 6.71402 21.9956 6.90689 22.8722 7.60429C24.0871 8.57142 24.4079 10.2066 25.0482 13.4784L26.1421 19.0687C27.0419 23.6696 27.4911 25.97 26.18 27.485C24.8674 29 22.4244 29 17.54 29H9.46011C4.57424 29 2.13277 29 0.820147 27.485C-0.492473 25.97 -0.0403487 23.6696 0.858067 19.0687L1.95192 13.4784C2.59364 10.208 2.91305 8.57142 4.12795 7.60429C5.00449 6.90689 6.15376 6.71402 8.03081 6.65952ZM10.2185 5.24096C10.2185 4.40697 10.5642 3.60713 11.1797 3.01741C11.7951 2.42769 12.6297 2.09639 13.5001 2.09639C14.3704 2.09639 15.2051 2.42769 15.8205 3.01741C16.4359 3.60713 16.7816 4.40697 16.7816 5.24096V6.63855H10.2185V5.24096Z" fill="#B59B76"/>
</svg>
