<svg width="24" height="30" viewBox="0 0 24 30" fill="none" xmlns="http://www.w3.org/2000/svg">
<path d="M8.63095 5.76276V10.2755M14.5357 5.76276V10.2755M1.25 13.284C1.25 12.4861 1.56105 11.7209 2.11473 11.1567C2.66841 10.5925 3.41936 10.2755 4.20238 10.2755H18.9643C19.7473 10.2755 20.4983 10.5925 21.0519 11.1567C21.6056 11.7209 21.9167 12.4861 21.9167 13.284V25.3181C21.9167 26.116 21.6056 26.8812 21.0519 27.4454C20.4983 28.0096 19.7473 28.3266 18.9643 28.3266H4.20238C3.41936 28.3266 2.66841 28.0096 2.11473 27.4454C1.56105 26.8812 1.25 26.116 1.25 25.3181V13.284Z" stroke="#B59B76" stroke-width="2.5" stroke-linecap="round" stroke-linejoin="round"/>
<path d="M8.63146 19.3011C8.63146 20.099 8.94252 20.8642 9.4962 21.4284C10.0499 21.9926 10.8008 22.3096 11.5838 22.3096C12.3669 22.3096 13.1178 21.9926 13.6715 21.4284C14.2252 20.8642 14.5362 20.099 14.5362 19.3011C14.5362 18.5032 14.2252 17.7379 13.6715 17.1737C13.1178 16.6095 12.3669 16.2926 11.5838 16.2926C10.8008 16.2926 10.0499 16.6095 9.4962 17.1737C8.94252 17.7379 8.63146 18.5032 8.63146 19.3011ZM7.15527 1.25H16.0124V5.76277H7.15527V1.25Z" stroke="#B59B76" stroke-width="2.5" stroke-linecap="round" stroke-linejoin="round"/>
</svg>
